<?xml version="1.0" encoding="utf-8"?>
<!-- Generator: Adobe Illustrator 20.0.0, SVG Export Plug-In . SVG Version: 6.00 Build 0)  -->
<svg version="1.1" id="Calque_1" xmlns="http://www.w3.org/2000/svg" xmlns:xlink="http://www.w3.org/1999/xlink" x="0px" y="0px"
	 viewBox="0 0 50 50" style="enable-background:new 0 0 50 50;" xml:space="preserve">
<style type="text/css">
	.st0{fill:none;stroke:#000000;stroke-miterlimit:10;}
</style>
<circle class="st0" cx="25" cy="25" r="23.7"/>
<path d="M37.9,29.6v-8.6 M37.9,29.6v-8.6 M10.7,29.6v-8.6 M39.3,29.6v-8.6 M29.6,29.3h-9.3c-0.4,0-0.7,0.3-0.7,0.7s0.3,0.7,0.7,0.7
	h9.3c0.4,0,0.7-0.3,0.7-0.7S30,29.3,29.6,29.3z M29.6,32.9h-9.3c-0.4,0-0.7,0.3-0.7,0.7c0,0.4,0.3,0.7,0.7,0.7h9.3
	c0.4,0,0.7-0.3,0.7-0.7C30.4,33.2,30,32.9,29.6,32.9z M29.6,29.3h-9.3c-0.4,0-0.7,0.3-0.7,0.7s0.3,0.7,0.7,0.7h9.3
	c0.4,0,0.7-0.3,0.7-0.7S30,29.3,29.6,29.3z M29.6,32.9h-9.3c-0.4,0-0.7,0.3-0.7,0.7c0,0.4,0.3,0.7,0.7,0.7h9.3
	c0.4,0,0.7-0.3,0.7-0.7C30.4,33.2,30,32.9,29.6,32.9z M29.6,32.9h-9.3c-0.4,0-0.7,0.3-0.7,0.7c0,0.4,0.3,0.7,0.7,0.7h9.3
	c0.4,0,0.7-0.3,0.7-0.7C30.4,33.2,30,32.9,29.6,32.9z M29.6,29.3h-9.3c-0.4,0-0.7,0.3-0.7,0.7s0.3,0.7,0.7,0.7h9.3
	c0.4,0,0.7-0.3,0.7-0.7S30,29.3,29.6,29.3z M20.4,30.7h9.3c0.4,0,0.7-0.3,0.7-0.7s-0.3-0.7-0.7-0.7h-9.3c-0.4,0-0.7,0.3-0.7,0.7
	S20,30.7,20.4,30.7z M29.6,32.9h-9.3c-0.4,0-0.7,0.3-0.7,0.7c0,0.4,0.3,0.7,0.7,0.7h9.3c0.4,0,0.7-0.3,0.7-0.7
	C30.4,33.2,30,32.9,29.6,32.9z M36.4,18.2h-2.5v-5c0-0.4-0.3-0.7-0.7-0.7H16.8c-0.4,0-0.7,0.3-0.7,0.7v5h-2.5
	c-1.6,0-2.9,1.3-2.9,2.9v8.6c0,1.6,1.3,2.9,2.9,2.9h2.5v4.3c0,0.4,0.3,0.7,0.7,0.7h16.4c0.4,0,0.7-0.3,0.7-0.7v-4.3h2.5
	c1.6,0,2.9-1.3,2.9-2.9v-8.6C39.3,19.5,38,18.2,36.4,18.2z M17.5,13.9h15v4.3h-15V13.9z M32.5,36.1h-15v-8.6h15V36.1z M37.9,29.6
	c0,0.8-0.6,1.4-1.4,1.4h-2.5v-4.3c0-0.4-0.3-0.7-0.7-0.7H16.8c-0.4,0-0.7,0.3-0.7,0.7v4.3h-2.5c-0.8,0-1.4-0.6-1.4-1.4v-8.6
	c0-0.8,0.6-1.4,1.4-1.4h22.9c0.8,0,1.4,0.6,1.4,1.4V29.6z M20.4,30.7h9.3c0.4,0,0.7-0.3,0.7-0.7s-0.3-0.7-0.7-0.7h-9.3
	c-0.4,0-0.7,0.3-0.7,0.7S20,30.7,20.4,30.7z M20.4,34.3h9.3c0.4,0,0.7-0.3,0.7-0.7c0-0.4-0.3-0.7-0.7-0.7h-9.3
	c-0.4,0-0.7,0.3-0.7,0.7C19.6,34,20,34.3,20.4,34.3z M29.6,32.9h-9.3c-0.4,0-0.7,0.3-0.7,0.7c0,0.4,0.3,0.7,0.7,0.7h9.3
	c0.4,0,0.7-0.3,0.7-0.7C30.4,33.2,30,32.9,29.6,32.9z M29.6,29.3h-9.3c-0.4,0-0.7,0.3-0.7,0.7s0.3,0.7,0.7,0.7h9.3
	c0.4,0,0.7-0.3,0.7-0.7S30,29.3,29.6,29.3z M29.6,29.3h-9.3c-0.4,0-0.7,0.3-0.7,0.7s0.3,0.7,0.7,0.7h9.3c0.4,0,0.7-0.3,0.7-0.7
	S30,29.3,29.6,29.3z M29.6,32.9h-9.3c-0.4,0-0.7,0.3-0.7,0.7c0,0.4,0.3,0.7,0.7,0.7h9.3c0.4,0,0.7-0.3,0.7-0.7
	C30.4,33.2,30,32.9,29.6,32.9z"/>
</svg>
