<?xml version="1.0" encoding="utf-8"?>
<!-- Generator: Adobe Illustrator 20.0.0, SVG Export Plug-In . SVG Version: 6.00 Build 0)  -->
<svg version="1.1" id="Calque_1" xmlns="http://www.w3.org/2000/svg" xmlns:xlink="http://www.w3.org/1999/xlink" x="0px" y="0px"
	 viewBox="0 0 30 60" style="enable-background:new 0 0 30 60;" xml:space="preserve">
<style type="text/css">
	.st0{fill:#00FFE4;}
</style>
<path class="st0" d="M19.7,51L15,55.6L10.3,51c-0.6-0.6-1.4-0.6-2,0c-0.6,0.6-0.6,1.4,0,2l5.7,5.7c0.3,0.3,0.6,0.4,1,0.4
	s0.7-0.1,1-0.4l5.7-5.7c0.6-0.6,0.6-1.4,0-2C21.1,50.4,20.2,50.4,19.7,51z"/>
<path class="st0" d="M21.7,43.2c-0.6-0.6-1.4-0.6-2,0L15,47.8l-4.7-4.7c-0.6-0.6-1.4-0.6-2,0s-0.6,1.4,0,2l5.7,5.7
	c0.3,0.3,0.6,0.4,1,0.4s0.7-0.1,1-0.4l5.7-5.7C22.2,44.6,22.2,43.7,21.7,43.2z"/>
<path class="st0" d="M27.8,26.5V13.7C27.8,6.7,22,1,15,1S2.2,6.7,2.2,13.7v12.8c0,7,5.7,12.7,12.8,12.7S27.8,33.5,27.8,26.5z
	 M15,36.4c-5.5,0-9.9-4.5-9.9-9.9V13.7c0-5.5,4.5-9.9,9.9-9.9s9.9,4.5,9.9,9.9v12.8C24.9,31.9,20.5,36.4,15,36.4z"/>
<path class="st0" d="M15,8.8c-0.8,0-1.4,0.6-1.4,1.4v4.2c0,0.8,0.6,1.4,1.4,1.4s1.4-0.6,1.4-1.4v-4.2C16.4,9.4,15.8,8.8,15,8.8z"/>
</svg>
